<svg width="60" height="60" viewBox="0 0 60 60" fill="none" xmlns="http://www.w3.org/2000/svg">
<rect width="60" height="60" rx="30" fill="#FFAF42"/>
<path d="M42.81 36.9195L36.8447 30.9674C36.9696 30.3595 37.0315 29.7404 37.0295 29.1198C37.029 27.4182 36.5996 25.7441 35.7809 24.2524C34.9622 22.7606 33.7807 21.4994 32.3455 20.5851C30.9104 19.6709 29.2679 19.1332 27.5699 19.0217C25.872 18.9103 24.1733 19.2287 22.631 19.9475C22.4356 20.0368 22.2649 20.1724 22.1338 20.3426C22.0027 20.5128 21.9151 20.7124 21.8787 20.9241C21.8424 21.1331 21.8571 21.3478 21.9214 21.55C21.9857 21.7522 22.0978 21.9359 22.2482 22.0855L27.9892 27.8132L25.6136 30.1888L19.8859 24.4479C19.735 24.2998 19.5507 24.1901 19.3486 24.1281C19.1465 24.0661 18.9325 24.0536 18.7245 24.0915C18.5141 24.1266 18.3154 24.2122 18.1453 24.3409C17.9752 24.4696 17.8388 24.6376 17.7479 24.8306C17.0267 26.378 16.7085 28.0827 16.8231 29.7861C16.9377 31.4895 17.4812 33.1362 18.4032 34.5731C19.3251 36.01 20.5955 37.1904 22.0961 38.0044C23.5968 38.8185 25.279 39.2398 26.9862 39.2291C27.6067 39.2311 28.2259 39.1692 28.8338 39.0443L34.7859 45.0096C34.9086 45.1333 35.0546 45.2315 35.2154 45.2985C35.3762 45.3655 35.5487 45.4 35.7229 45.4C35.8972 45.4 36.0696 45.3655 36.2305 45.2985C36.3913 45.2315 36.5373 45.1333 36.66 45.0096C36.7836 44.8869 36.8818 44.741 36.9488 44.5801C37.0158 44.4193 37.0503 44.2468 37.0503 44.0726C37.0503 43.8984 37.0158 43.7259 36.9488 43.565C36.8818 43.4042 36.7836 43.2583 36.66 43.1356L30.1932 36.6688C30.0316 36.5082 29.8312 36.3923 29.6114 36.3321C29.3917 36.272 29.1602 36.2698 28.9394 36.3256C28.3022 36.4963 27.6458 36.585 26.9862 36.5896C25.999 36.5983 25.02 36.4116 24.1053 36.0403C23.1907 35.6689 22.3585 35.1203 21.6568 34.426C20.9552 33.7317 20.3978 32.9053 20.0168 31.9947C19.6359 31.084 19.4389 30.1069 19.4372 29.1198C19.4355 28.6777 19.4708 28.2362 19.5427 27.8L24.7162 32.9867C24.8389 33.1104 24.9848 33.2085 25.1457 33.2755C25.3065 33.3425 25.479 33.377 25.6532 33.377C25.8274 33.377 25.9999 33.3425 26.1608 33.2755C26.3216 33.2085 26.4675 33.1104 26.5902 32.9867L30.787 28.7503C31.0249 28.5042 31.1579 28.1753 31.1579 27.833C31.1579 27.4908 31.0249 27.1619 30.787 26.9158L25.6532 21.7424C26.0895 21.6711 26.5309 21.6358 26.973 21.6368C28.9553 21.6403 30.8552 22.4302 32.2557 23.8332C33.6562 25.2361 34.4428 27.1375 34.4428 29.1198C34.4382 29.7794 34.3495 30.4358 34.1788 31.073C34.1229 31.2938 34.1252 31.5254 34.1853 31.7451C34.2454 31.9648 34.3614 32.1652 34.5219 32.3268L40.9887 38.7936C41.2373 39.0421 41.5743 39.1817 41.9258 39.1817C42.2772 39.1817 42.6143 39.0421 42.8628 38.7936C43.1113 38.5451 43.2509 38.208 43.2509 37.8566C43.2509 37.5051 43.1113 37.168 42.8628 36.9195H42.81Z" fill="#2D3274"/>
<path d="M3.32672 26.1735L3.80498 24.4721L6.81626 23.881L6.83183 23.8256L4.5695 21.7522L5.04776 20.0507L8.59673 23.5349L10.7012 24.1264L10.2757 25.6402L8.17122 25.0487L3.32672 26.1735Z" fill="#2D3274"/>
<path d="M11.4208 14.7967C12.0584 15.1315 12.5345 15.5379 12.8491 16.0159C13.1637 16.4939 13.3261 17.0027 13.3364 17.5423C13.3476 18.0801 13.2171 18.6083 12.9447 19.1271C12.6714 19.6478 12.3092 20.0557 11.8583 20.3508C11.4074 20.6458 10.8968 20.8001 10.3266 20.8136C9.75553 20.8242 9.15211 20.6626 8.51636 20.3289C7.87873 19.9941 7.40213 19.5887 7.08657 19.1125C6.772 18.6346 6.60908 18.1267 6.59781 17.5889C6.58655 17.0512 6.71759 16.522 6.99095 16.0013C7.26332 15.4825 7.62402 15.0751 8.07306 14.779C8.52309 14.481 9.03414 14.3258 9.60622 14.3133C10.1783 14.3008 10.7832 14.462 11.4208 14.7967ZM10.6691 16.2286C10.2918 16.0305 9.94472 15.9169 9.62793 15.8877C9.31213 15.8567 9.03476 15.906 8.79584 16.0356C8.5579 16.1634 8.36564 16.3669 8.21906 16.6461C8.07347 16.9234 8.01515 17.1972 8.0441 17.4675C8.07306 17.7378 8.18948 17.995 8.39336 18.2392C8.59823 18.4816 8.88931 18.7018 9.26661 18.8998C9.64391 19.0979 9.99046 19.2125 10.3063 19.2435C10.6231 19.2727 10.9009 19.2224 11.1398 19.0928C11.3788 18.9631 11.571 18.7596 11.7166 18.4823C11.8632 18.2031 11.9215 17.9293 11.8916 17.6609C11.8626 17.3906 11.7457 17.1343 11.5408 16.892C11.337 16.6478 11.0464 16.4267 10.6691 16.2286Z" fill="#2D3274"/>
<path d="M14.0009 8.42248L15.1871 7.38044L17.9736 10.5522C18.2956 10.9188 18.4889 11.3148 18.5535 11.7402C18.6167 12.164 18.5576 12.5874 18.3762 13.0105C18.1935 13.432 17.8956 13.8241 17.4826 14.187C17.0648 14.554 16.6352 14.801 16.1937 14.9279C15.7507 15.0533 15.324 15.0566 14.9135 14.938C14.5015 14.8178 14.1346 14.5744 13.8125 14.2078L11.026 11.036L12.2146 9.99185L14.9103 13.0604C15.0594 13.2301 15.2291 13.349 15.4195 13.4172C15.6114 13.4839 15.8077 13.4959 16.0082 13.453C16.2088 13.4101 16.3979 13.3106 16.5756 13.1545C16.7533 12.9984 16.8755 12.8244 16.9422 12.6324C17.0106 12.4391 17.024 12.2429 16.9826 12.044C16.9411 11.845 16.8458 11.6607 16.6967 11.491L14.0009 8.42248Z" fill="#2D3274"/>
<path d="M21.336 11.9601L19.0653 5.82115L21.6013 4.88318C22.0609 4.71317 22.4882 4.64938 22.8833 4.69181C23.2796 4.7315 23.6257 4.87159 23.9213 5.11207C24.2163 5.35056 24.4414 5.67963 24.5966 6.09929C24.754 6.52494 24.7949 6.92102 24.7192 7.28752C24.6427 7.65201 24.4624 7.9754 24.1784 8.25766C23.8936 8.53793 23.5174 8.76455 23.0497 8.93751L21.446 9.53067L21.0136 8.36163L22.3416 7.87046C22.5654 7.78768 22.7415 7.68959 22.87 7.5762C22.9997 7.46008 23.0813 7.32765 23.1149 7.17892C23.1477 7.02819 23.129 6.85791 23.0588 6.66806C22.9886 6.47822 22.8916 6.33576 22.7679 6.24069C22.6434 6.14362 22.4937 6.0922 22.3189 6.08642C22.1434 6.07865 21.9447 6.11579 21.7229 6.19783L20.9915 6.46836L22.8198 11.4113L21.336 11.9601ZM23.7544 7.87607L26.3209 10.1163L24.7022 10.715L22.1657 8.46369L23.7544 7.87607Z" fill="#2D3274"/>
<path d="M35.9654 6.365C35.9716 6.12974 35.8987 5.93774 35.7467 5.789C35.5971 5.6384 35.3689 5.54506 35.062 5.50898C34.8589 5.48509 34.6865 5.49164 34.5448 5.52862C34.4032 5.5656 34.293 5.62666 34.2144 5.71181C34.1359 5.79484 34.0887 5.89548 34.0727 6.01374C34.057 6.11058 34.066 6.19852 34.0996 6.27756C34.1353 6.35685 34.1911 6.42991 34.2669 6.49675C34.3451 6.56172 34.4409 6.62233 34.5544 6.67859C34.668 6.73484 34.7969 6.78755 34.9413 6.83671L35.485 7.02936C35.7985 7.13701 36.0711 7.26346 36.3029 7.4087C36.5368 7.5542 36.7279 7.71719 36.8761 7.89767C37.0265 8.07839 37.1327 8.27861 37.1949 8.4983C37.257 8.718 37.2738 8.95811 37.2453 9.21864C37.195 9.62891 37.0498 9.96905 36.81 10.2391C36.5702 10.5091 36.2485 10.6997 35.8449 10.811C35.4435 10.9226 34.9719 10.9465 34.4302 10.8828C33.8864 10.8189 33.4219 10.6817 33.0369 10.4712C32.6519 10.2608 32.3668 9.97623 32.1815 9.61763C31.9963 9.25903 31.9303 8.82542 31.9837 8.31681L33.4882 8.49371C33.4763 8.70469 33.5119 8.88587 33.5949 9.03722C33.6779 9.18858 33.802 9.31043 33.967 9.40278C34.1342 9.49538 34.3331 9.55524 34.5638 9.58236C34.7754 9.60724 34.9586 9.59982 35.1135 9.5601C35.2704 9.52063 35.3951 9.45484 35.4874 9.36272C35.5798 9.2706 35.6347 9.15907 35.6523 9.02812C35.6646 8.90513 35.6388 8.79591 35.575 8.70044C35.5114 8.60285 35.406 8.51324 35.259 8.43159C35.1144 8.34808 34.9268 8.26488 34.6963 8.182L34.0356 7.94342C33.4879 7.74816 33.0691 7.4876 32.7792 7.16174C32.4895 6.83377 32.3747 6.42338 32.4348 5.93058C32.48 5.52827 32.6293 5.18862 32.8828 4.91165C33.1364 4.63467 33.4657 4.43418 33.8707 4.31017C34.2757 4.18617 34.7248 4.15315 35.2178 4.21112C35.7215 4.27034 36.1484 4.40742 36.4985 4.62236C36.8511 4.83544 37.1119 5.10746 37.2811 5.43843C37.4503 5.7694 37.5132 6.13722 37.47 6.5419L35.9654 6.365Z" fill="#2D3274"/>
<path d="M39.0208 11.8053L42.8403 6.48984L44.1251 7.41302L42.592 9.54647L44.6866 11.0515L46.2196 8.91808L47.5017 9.8394L43.6822 15.1549L42.4 14.2335L43.935 12.0975L41.8404 10.5924L40.3055 12.7285L39.0208 11.8053Z" fill="#2D3274"/>
<path d="M51.2927 19.8029C50.6978 20.2087 50.1154 20.4383 49.5457 20.4917C48.976 20.545 48.4505 20.4495 47.9692 20.2053C47.4891 19.9628 47.0839 19.5995 46.7537 19.1154C46.4224 18.6296 46.2322 18.1184 46.1834 17.5817C46.1345 17.045 46.238 16.5218 46.4938 16.012C46.7525 15.5028 47.1785 15.0459 47.7716 14.6412C48.3666 14.2354 48.9483 14.0049 49.5168 13.9498C50.0866 13.8965 50.6115 13.9911 51.0916 14.2336C51.5717 14.4761 51.9774 14.8402 52.3088 15.3261C52.639 15.8101 52.8294 16.3199 52.88 16.8553C52.9318 17.3926 52.8289 17.9167 52.5714 18.4277C52.3139 18.9386 51.8876 19.3971 51.2927 19.8029ZM50.3814 18.4669C50.7334 18.2268 50.9966 17.9737 51.1711 17.7077C51.3468 17.4434 51.4334 17.1754 51.4311 16.9036C51.43 16.6335 51.3406 16.3682 51.1629 16.1077C50.9864 15.849 50.7721 15.6689 50.5198 15.5676C50.2676 15.4663 49.9858 15.4483 49.6744 15.5137C49.3643 15.5808 49.0332 15.7344 48.6812 15.9746C48.3291 16.2147 48.0653 16.4669 47.8896 16.7312C47.7152 16.9972 47.6291 17.2661 47.6314 17.5379C47.6337 17.8098 47.7231 18.075 47.8996 18.3338C48.0773 18.5943 48.2917 18.7743 48.5427 18.8739C48.795 18.9752 49.0762 18.9923 49.3863 18.9252C49.6976 18.8598 50.0293 18.7071 50.3814 18.4669Z" fill="#2D3274"/>
<path d="M49.1037 23.794L55.2021 21.4166L56.1842 23.9357C56.3622 24.3923 56.4265 24.8212 56.377 25.2224C56.3304 25.6248 56.1834 25.9782 55.9362 26.2827C55.691 26.5864 55.359 26.8199 54.9401 26.9832C54.5193 27.1472 54.115 27.1985 53.7274 27.1369C53.3426 27.0766 52.9976 26.9103 52.6926 26.6382C52.3875 26.366 52.1441 25.9967 51.9622 25.5302L51.3562 23.9758L52.5175 23.5231L53.0167 24.8035C53.1034 25.0259 53.2145 25.1964 53.3499 25.3151C53.4862 25.4358 53.6389 25.5077 53.808 25.531C53.9791 25.5535 54.158 25.5283 54.3446 25.4556C54.5332 25.3821 54.6809 25.2799 54.7877 25.1491C54.8965 25.0175 54.9591 24.8615 54.9758 24.6813C54.9924 24.501 54.9577 24.3007 54.8718 24.0803L54.5886 23.3537L49.6783 25.268L49.1037 23.794Z" fill="#2D3274"/>
</svg>
