<svg width="60" height="60" viewBox="0 0 60 60" fill="none" xmlns="http://www.w3.org/2000/svg">
<rect x="1" y="1" width="58" height="58" rx="29" fill="#2D3274"/>
<path d="M22.0198 23.094V39H19.0498V32.048H11.5808V39H8.61084V23.094H11.5808V29.936H19.0498V23.094H22.0198ZM32.0603 32.059C32.0603 31.707 32.0089 31.377 31.9063 31.069C31.8109 30.7537 31.6643 30.4787 31.4663 30.244C31.2683 30.0093 31.0153 29.826 30.7073 29.694C30.4066 29.5547 30.0546 29.485 29.6513 29.485C28.8666 29.485 28.2469 29.7087 27.7923 30.156C27.3449 30.6033 27.0589 31.2377 26.9343 32.059H32.0603ZM26.8793 33.698C26.9233 34.2773 27.0259 34.7797 27.1873 35.205C27.3486 35.623 27.5613 35.9713 27.8253 36.25C28.0893 36.5213 28.4009 36.7267 28.7603 36.866C29.1269 36.998 29.5303 37.064 29.9703 37.064C30.4103 37.064 30.7879 37.0127 31.1033 36.91C31.4259 36.8073 31.7046 36.6937 31.9393 36.569C32.1813 36.4443 32.3903 36.3307 32.5663 36.228C32.7496 36.1253 32.9256 36.074 33.0943 36.074C33.3216 36.074 33.4903 36.1583 33.6003 36.327L34.3813 37.317C34.0806 37.669 33.7433 37.966 33.3693 38.208C32.9953 38.4427 32.6029 38.6333 32.1923 38.78C31.7889 38.9193 31.3746 39.0183 30.9493 39.077C30.5313 39.1357 30.1243 39.165 29.7283 39.165C28.9436 39.165 28.2139 39.0367 27.5393 38.78C26.8646 38.516 26.2779 38.131 25.7793 37.625C25.2806 37.1117 24.8883 36.481 24.6023 35.733C24.3163 34.9777 24.1733 34.105 24.1733 33.115C24.1733 32.345 24.2979 31.6227 24.5473 30.948C24.7966 30.266 25.1523 29.6757 25.6143 29.177C26.0836 28.671 26.6519 28.2713 27.3193 27.978C27.9939 27.6847 28.7529 27.538 29.5963 27.538C30.3076 27.538 30.9639 27.6517 31.5653 27.879C32.1666 28.1063 32.6836 28.44 33.1163 28.88C33.5489 29.3127 33.8863 29.848 34.1283 30.486C34.3776 31.1167 34.5023 31.839 34.5023 32.653C34.5023 33.0637 34.4583 33.3423 34.3703 33.489C34.2823 33.6283 34.1136 33.698 33.8643 33.698H26.8793ZM39.2912 22.654V39H36.5742V22.654H39.2912ZM44.7153 36.074C45.0233 36.448 45.3569 36.712 45.7163 36.866C46.0829 37.02 46.4789 37.097 46.9043 37.097C47.3149 37.097 47.6853 37.02 48.0153 36.866C48.3453 36.712 48.6239 36.4773 48.8513 36.162C49.0859 35.8467 49.2656 35.4507 49.3903 34.974C49.5149 34.49 49.5773 33.9217 49.5773 33.269C49.5773 32.609 49.5223 32.0517 49.4123 31.597C49.3096 31.135 49.1593 30.761 48.9613 30.475C48.7633 30.189 48.5213 29.98 48.2353 29.848C47.9566 29.716 47.6376 29.65 47.2783 29.65C46.7136 29.65 46.2333 29.771 45.8373 30.013C45.4413 30.2477 45.0673 30.5813 44.7153 31.014V36.074ZM44.5723 29.254C45.0343 28.7333 45.5586 28.3117 46.1453 27.989C46.7319 27.6663 47.4213 27.505 48.2133 27.505C48.8293 27.505 49.3903 27.6333 49.8963 27.89C50.4096 28.1467 50.8496 28.5207 51.2163 29.012C51.5903 29.496 51.8763 30.0973 52.0743 30.816C52.2796 31.5273 52.3823 32.345 52.3823 33.269C52.3823 34.1123 52.2686 34.8933 52.0413 35.612C51.8139 36.3307 51.4876 36.954 51.0623 37.482C50.6443 38.01 50.1346 38.4243 49.5333 38.725C48.9393 39.0183 48.2719 39.165 47.5312 39.165C46.9006 39.165 46.3616 39.0697 45.9143 38.879C45.4669 38.681 45.0673 38.4097 44.7153 38.065V42.685H41.9983V27.714H43.6593C44.0113 27.714 44.2423 27.879 44.3523 28.209L44.5723 29.254Z" fill="#FFAF42"/>
<rect x="1" y="1" width="58" height="58" rx="29" stroke="#FFAF42" stroke-width="2"/>
</svg>
