<svg width="41" height="40" viewBox="0 0 41 40" fill="none" xmlns="http://www.w3.org/2000/svg">
<path d="M37.1961 18.3281C36.6235 17.568 34.4961 17.0445 33.5961 15.6766C32.6961 14.3086 31.9594 11.3461 29.6688 10.2078C27.3782 9.06953 23 8.75 20.5 8.75C18 8.75 13.625 9.0625 11.3313 10.2055C9.03755 11.3484 8.30395 14.3086 7.40395 15.6742C6.50395 17.0398 4.37661 17.568 3.80395 18.3281C3.2313 19.0883 2.82817 23.8938 3.07349 26.25C3.3188 28.6062 3.77661 30 3.77661 30H10.4954C11.5954 30 11.9532 29.5867 14.2032 29.375C16.6719 29.1406 19.0938 29.0625 20.5 29.0625C21.9063 29.0625 24.4063 29.1406 26.8735 29.375C29.1235 29.5883 29.493 30 30.5813 30H37.2219C37.2219 30 37.6797 28.6062 37.925 26.25C38.1704 23.8938 37.7657 19.0883 37.1961 18.3281ZM31.75 30H36.125V31.25H31.75V30ZM4.87505 30H9.25005V31.25H4.87505V30Z" stroke="#FBFBFB" stroke-width="2" stroke-linecap="round" stroke-linejoin="round"/>
<path d="M28.9742 24.1532C28.5125 23.6196 27.0078 23.1742 25.0156 22.8758C23.0234 22.5774 22.2968 22.5 20.5156 22.5C18.7343 22.5 17.9242 22.6282 16.0148 22.8758C14.1054 23.1235 12.6718 23.5641 12.057 24.1532C11.1343 25.0469 12.4859 26.05 13.5468 26.1719C14.575 26.2891 16.6304 26.2461 20.5242 26.2461C24.4179 26.2461 26.4734 26.2891 27.5015 26.1719C28.5609 26.043 29.8156 25.1094 28.9742 24.1532ZM34.2164 18.9883C34.212 18.9263 34.1848 18.868 34.1401 18.8248C34.0954 18.7815 34.0363 18.7563 33.9742 18.7539C33.0515 18.7211 32.1148 18.7867 30.4531 19.2766C29.6053 19.5241 28.8092 19.9227 28.1031 20.4531C27.925 20.5922 27.9882 20.968 28.2117 21.0078C29.5813 21.1685 30.9592 21.2494 32.3382 21.25C33.1656 21.25 34.0195 21.0157 34.1781 20.2782C34.2589 19.8529 34.2719 19.4176 34.2164 18.9883ZM6.78355 18.9883C6.78793 18.9263 6.81508 18.868 6.85978 18.8248C6.90448 18.7815 6.96358 18.7563 7.02574 18.7539C7.94839 18.7211 8.88511 18.7867 10.5468 19.2766C11.3946 19.5241 12.1907 19.9227 12.8968 20.4531C13.075 20.5922 13.0117 20.968 12.7882 21.0078C11.4186 21.1685 10.0407 21.2494 8.66167 21.25C7.83433 21.25 6.98042 21.0157 6.82183 20.2782C6.74097 19.8529 6.72805 19.4176 6.78355 18.9883Z" fill="#FBFBFB"/>
<path d="M34.25 15H35.5M5.5 15H6.75M6.59375 16.4844C6.59375 16.4844 10.2148 15.5469 20.5 15.5469C30.7852 15.5469 34.4062 16.4844 34.4062 16.4844" stroke="#FBFBFB" stroke-width="2" stroke-linecap="round" stroke-linejoin="round"/>
</svg>
