<svg width="24" height="24" viewBox="0 0 24 24" fill="none" xmlns="http://www.w3.org/2000/svg">
<path d="M22.0177 10.9969C21.6741 10.5408 20.3977 10.2267 19.8577 9.40594C19.3177 8.58516 18.8756 6.80766 17.5013 6.12469C16.1269 5.44172 13.5 5.25 12 5.25C10.5 5.25 7.875 5.4375 6.49875 6.12328C5.1225 6.80906 4.68235 8.58516 4.14235 9.40453C3.60235 10.2239 2.32594 10.5408 1.98235 10.9969C1.63875 11.453 1.39688 14.3363 1.54407 15.75C1.69125 17.1637 1.96594 18 1.96594 18H5.99719C6.65719 18 6.87188 17.752 8.22188 17.625C9.70313 17.4844 11.1563 17.4375 12 17.4375C12.8438 17.4375 14.3438 17.4844 15.8241 17.625C17.1741 17.753 17.3958 18 18.0488 18H22.0331C22.0331 18 22.3078 17.1637 22.455 15.75C22.6022 14.3363 22.3594 11.453 22.0177 10.9969ZM18.75 18H21.375V18.75H18.75V18ZM2.625 18H5.25V18.75H2.625V18Z" stroke="#2D3274" stroke-opacity="0.8" stroke-width="2" stroke-linecap="round" stroke-linejoin="round"/>
<path d="M17.0845 14.4919C16.8075 14.1717 15.9047 13.9045 14.7094 13.7255C13.5141 13.5464 13.0781 13.5 12.0094 13.5C10.9406 13.5 10.4545 13.5769 9.3089 13.7255C8.16328 13.8741 7.30312 14.1384 6.93422 14.4919C6.38062 15.0281 7.19156 15.63 7.82812 15.7031C8.445 15.7734 9.67828 15.7477 12.0145 15.7477C14.3508 15.7477 15.5841 15.7734 16.2009 15.7031C16.8366 15.6258 17.5894 15.0656 17.0845 14.4919ZM20.2298 11.393C20.2272 11.3557 20.2109 11.3208 20.1841 11.2948C20.1573 11.2689 20.1218 11.2538 20.0845 11.2523C19.5309 11.2327 18.9689 11.272 17.9719 11.5659C17.4632 11.7144 16.9855 11.9536 16.5619 12.2719C16.455 12.3553 16.493 12.5808 16.627 12.6047C17.4488 12.7011 18.2755 12.7496 19.103 12.75C19.5994 12.75 20.1117 12.6094 20.2069 12.1669C20.2554 11.9117 20.2631 11.6505 20.2298 11.393ZM3.77015 11.393C3.77279 11.3557 3.78907 11.3208 3.81589 11.2948C3.84271 11.2689 3.87817 11.2538 3.91547 11.2523C4.46906 11.2327 5.03109 11.272 6.02812 11.5659C6.53679 11.7144 7.01446 11.9536 7.43812 12.2719C7.545 12.3553 7.50703 12.5808 7.37297 12.6047C6.55117 12.7011 5.72446 12.7496 4.89703 12.75C4.40062 12.75 3.88828 12.6094 3.79312 12.1669C3.74461 11.9117 3.73686 11.6505 3.77015 11.393Z" fill="#2D3274" fill-opacity="0.8"/>
<path d="M20.25 9H21M3 9H3.75M3.65625 9.89062C3.65625 9.89062 5.82891 9.32812 12 9.32812C18.1711 9.32812 20.3438 9.89062 20.3438 9.89062" stroke="#2D3274" stroke-opacity="0.8" stroke-width="2" stroke-linecap="round" stroke-linejoin="round"/>
</svg>
