<svg width="41" height="40" viewBox="0 0 41 40" fill="none" xmlns="http://www.w3.org/2000/svg">
<path d="M33.3563 8.31714H28.6505C28.5563 8.31714 28.4659 8.35458 28.3992 8.42122C28.3326 8.48787 28.2952 8.57826 28.2952 8.6725C28.2952 8.73306 28.3143 8.78724 28.3406 8.83664V11.5441C28.3407 11.6433 28.3212 11.7416 28.2833 11.8333C28.2454 11.925 28.1897 12.0083 28.1196 12.0785C28.0494 12.1486 27.9661 12.2042 27.8744 12.2422C27.7827 12.2801 27.6845 12.2996 27.5852 12.2995H26.1207C26.0287 12.2995 25.9375 12.2813 25.8524 12.2461C25.7673 12.2108 25.6901 12.1592 25.6249 12.0941C25.5598 12.029 25.5082 11.9517 25.4729 11.8666C25.4377 11.7815 25.4196 11.6904 25.4196 11.5983V8.88046C25.4666 8.82118 25.4929 8.74814 25.4945 8.6725C25.4946 8.62581 25.4855 8.57955 25.4676 8.53639C25.4498 8.49323 25.4236 8.45401 25.3906 8.42099C25.3576 8.38797 25.3184 8.3618 25.2752 8.34398C25.2321 8.32615 25.1858 8.31703 25.1391 8.31714H15.6534C15.5592 8.31714 15.4688 8.35458 15.4021 8.42122C15.3355 8.48787 15.2981 8.57826 15.2981 8.6725C15.2981 8.72748 15.3132 8.77768 15.3355 8.82469V11.5632C15.3355 11.66 15.3164 11.7559 15.2794 11.8453C15.2424 11.9347 15.1881 12.0159 15.1196 12.0844C15.0512 12.1528 14.97 12.2071 14.8805 12.2441C14.7911 12.2812 14.6953 12.3003 14.5985 12.3003H13.2981C13.1008 12.3003 12.9115 12.2218 12.7719 12.0823C12.6324 11.9427 12.5539 11.7534 12.5539 11.5561V8.84461C12.5856 8.79268 12.6029 8.7333 12.6041 8.6725C12.6042 8.62581 12.5951 8.57955 12.5773 8.53639C12.5595 8.49323 12.5333 8.45401 12.5003 8.42099C12.4673 8.38797 12.4281 8.3618 12.3849 8.34398C12.3417 8.32615 12.2955 8.31703 12.2488 8.31714H7.29041C7.08098 8.31735 6.88018 8.40058 6.73202 8.5486C6.58386 8.69661 6.50042 8.89732 6.5 9.10675V32.6389C6.5 33.0755 6.85457 33.4301 7.29041 33.4301H33.3563C33.5659 33.4297 33.7667 33.3461 33.9148 33.1978C34.0628 33.0495 34.1459 32.8485 34.1459 32.6389V9.10675C34.1455 8.89746 34.0622 8.69687 33.9142 8.54888C33.7662 8.40089 33.5656 8.31756 33.3563 8.31714ZM33.3563 32.7194H7.29041C7.27988 32.7194 7.26945 32.7173 7.25973 32.7132C7.25001 32.7092 7.24119 32.7032 7.23378 32.6957C7.22637 32.6883 7.22052 32.6794 7.21656 32.6696C7.21261 32.6599 7.21062 32.6494 7.21073 32.6389V14.8922H33.4352V32.6381C33.4354 32.6486 33.4335 32.6591 33.4297 32.6689C33.4258 32.6787 33.42 32.6876 33.4127 32.6952C33.4054 32.7027 33.3966 32.7088 33.3869 32.7129C33.3773 32.7171 33.3668 32.7193 33.3563 32.7194Z" fill="#FBFBFB"/>
<path d="M14.0402 11.4898C14.2362 11.4898 14.3955 11.3305 14.3955 11.1345V6.35536C14.3955 6.3087 14.3864 6.26249 14.3685 6.21937C14.3506 6.17626 14.3245 6.13708 14.2915 6.10408C14.2585 6.07109 14.2193 6.04491 14.1762 6.02705C14.1331 6.00919 14.0868 6 14.0402 6C13.9935 6 13.9473 6.00919 13.9042 6.02705C13.8611 6.04491 13.8219 6.07109 13.7889 6.10408C13.7559 6.13708 13.7297 6.17626 13.7119 6.21937C13.694 6.26249 13.6848 6.3087 13.6848 6.35536V11.1353C13.6848 11.3313 13.8442 11.4898 14.0402 11.4898ZM26.9114 11.4898C27.1074 11.4898 27.2667 11.3305 27.2667 11.1345V6.35536C27.2667 6.3087 27.2576 6.26249 27.2397 6.21937C27.2218 6.17626 27.1957 6.13708 27.1627 6.10408C27.1297 6.07109 27.0905 6.04491 27.0474 6.02705C27.0043 6.00919 26.9581 6 26.9114 6C26.8647 6 26.8185 6.00919 26.7754 6.02705C26.7323 6.04491 26.6931 6.07109 26.6601 6.10408C26.6271 6.13708 26.6009 6.17626 26.5831 6.21937C26.5652 6.26249 26.556 6.3087 26.556 6.35536V11.1353C26.556 11.3313 26.7146 11.4898 26.9114 11.4898Z" fill="#FBFBFB"/>
<path d="M12.2043 20.2681C13.286 20.2681 14.1628 19.3912 14.1628 18.3096C14.1628 17.2279 13.286 16.3511 12.2043 16.3511C11.1227 16.3511 10.2458 17.2279 10.2458 18.3096C10.2458 19.3912 11.1227 20.2681 12.2043 20.2681Z" fill="#FBFBFB"/>
<path d="M17.833 20.2681C18.9146 20.2681 19.7915 19.3912 19.7915 18.3096C19.7915 17.2279 18.9146 16.3511 17.833 16.3511C16.7514 16.3511 15.8745 17.2279 15.8745 18.3096C15.8745 19.3912 16.7514 20.2681 17.833 20.2681Z" fill="#FBFBFB"/>
<path d="M23.4604 20.2681C24.5421 20.2681 25.4189 19.3912 25.4189 18.3096C25.4189 17.2279 24.5421 16.3511 23.4604 16.3511C22.3788 16.3511 21.502 17.2279 21.502 18.3096C21.502 19.3912 22.3788 20.2681 23.4604 20.2681Z" fill="#FBFBFB"/>
<path d="M12.2043 25.7219C13.286 25.7219 14.1628 24.8451 14.1628 23.7634C14.1628 22.6818 13.286 21.8049 12.2043 21.8049C11.1227 21.8049 10.2458 22.6818 10.2458 23.7634C10.2458 24.8451 11.1227 25.7219 12.2043 25.7219Z" fill="#FBFBFB"/>
<path d="M17.833 25.7219C18.9146 25.7219 19.7915 24.8451 19.7915 23.7634C19.7915 22.6818 18.9146 21.8049 17.833 21.8049C16.7514 21.8049 15.8745 22.6818 15.8745 23.7634C15.8745 24.8451 16.7514 25.7219 17.833 25.7219Z" fill="#FBFBFB"/>
<path d="M23.4604 25.7219C24.5421 25.7219 25.4189 24.8451 25.4189 23.7634C25.4189 22.6818 24.5421 21.8049 23.4604 21.8049C22.3788 21.8049 21.502 22.6818 21.502 23.7634C21.502 24.8451 22.3788 25.7219 23.4604 25.7219Z" fill="#FBFBFB"/>
<path d="M12.2043 31.1758C13.286 31.1758 14.1628 30.2989 14.1628 29.2173C14.1628 28.1356 13.286 27.2588 12.2043 27.2588C11.1227 27.2588 10.2458 28.1356 10.2458 29.2173C10.2458 30.2989 11.1227 31.1758 12.2043 31.1758Z" fill="#FBFBFB"/>
<path d="M17.833 31.1758C18.9146 31.1758 19.7915 30.2989 19.7915 29.2173C19.7915 28.1356 18.9146 27.2588 17.833 27.2588C16.7514 27.2588 15.8745 28.1356 15.8745 29.2173C15.8745 30.2989 16.7514 31.1758 17.833 31.1758Z" fill="#FBFBFB"/>
<path d="M23.4604 31.1758C24.5421 31.1758 25.4189 30.2989 25.4189 29.2173C25.4189 28.1356 24.5421 27.2588 23.4604 27.2588C22.3788 27.2588 21.502 28.1356 21.502 29.2173C21.502 30.2989 22.3788 31.1758 23.4604 31.1758Z" fill="#FBFBFB"/>
<path d="M28.9563 20.2681C30.0379 20.2681 30.9148 19.3912 30.9148 18.3096C30.9148 17.2279 30.0379 16.3511 28.9563 16.3511C27.8746 16.3511 26.9978 17.2279 26.9978 18.3096C26.9978 19.3912 27.8746 20.2681 28.9563 20.2681Z" fill="#FBFBFB"/>
<path d="M28.9563 25.7219C30.0379 25.7219 30.9148 24.8451 30.9148 23.7634C30.9148 22.6818 30.0379 21.8049 28.9563 21.8049C27.8746 21.8049 26.9978 22.6818 26.9978 23.7634C26.9978 24.8451 27.8746 25.7219 28.9563 25.7219Z" fill="#FBFBFB"/>
<path d="M28.9563 31.1758C30.0379 31.1758 30.9148 30.2989 30.9148 29.2173C30.9148 28.1356 30.0379 27.2588 28.9563 27.2588C27.8746 27.2588 26.9978 28.1356 26.9978 29.2173C26.9978 30.2989 27.8746 31.1758 28.9563 31.1758Z" fill="#FBFBFB"/>
</svg>
