<svg width="25" height="24" viewBox="0 0 25 24" fill="none" xmlns="http://www.w3.org/2000/svg">
<path d="M23.1748 15.9329L18.2037 10.9729C18.3077 10.4663 18.3593 9.95031 18.3577 9.43314C18.3573 8.01513 17.9994 6.62009 17.3172 5.37697C16.635 4.13386 15.6503 3.08279 14.4544 2.32093C13.2584 1.55906 11.8897 1.11098 10.4747 1.01811C9.05974 0.925233 7.64418 1.19056 6.35889 1.78957C6.19605 1.86396 6.05384 1.97697 5.94459 2.1188C5.83534 2.26063 5.76237 2.42698 5.73201 2.60342C5.70177 2.77761 5.71397 2.95653 5.76757 3.125C5.82118 3.29348 5.91461 3.44655 6.03995 3.57124L10.8241 8.34435L8.84443 10.324L4.07132 5.53987C3.94558 5.41648 3.79203 5.3251 3.62361 5.27342C3.45518 5.22174 3.27681 5.21129 3.1035 5.24292C2.92817 5.27217 2.76255 5.34348 2.62081 5.45074C2.47907 5.55801 2.36544 5.69803 2.28965 5.85881C1.68864 7.14833 1.42354 8.5689 1.51902 9.98839C1.61449 11.4079 2.06744 12.7802 2.83571 13.9776C3.60399 15.175 4.66265 16.1587 5.91319 16.837C7.16374 17.5154 8.56555 17.8665 9.98822 17.8576C10.5054 17.8592 11.0213 17.8076 11.5279 17.7036L16.488 22.6747C16.5902 22.7778 16.7119 22.8596 16.8459 22.9154C16.9799 22.9712 17.1237 23 17.2689 23C17.414 23 17.5578 22.9712 17.6918 22.9154C17.8258 22.8596 17.9475 22.7778 18.0497 22.6747C18.1528 22.5724 18.2346 22.4508 18.2905 22.3168C18.3463 22.1828 18.375 22.039 18.375 21.8938C18.375 21.7486 18.3463 21.6049 18.2905 21.4709C18.2346 21.3368 18.1528 21.2152 18.0497 21.113L12.6607 15.724C12.526 15.5902 12.359 15.4936 12.176 15.4434C11.9929 15.3933 11.7999 15.3915 11.6159 15.438C11.0849 15.5802 10.5379 15.6541 9.98822 15.658C9.16563 15.6652 8.34973 15.5097 7.58752 15.2002C6.82531 14.8908 6.13187 14.4336 5.54712 13.855C4.96238 13.2764 4.4979 12.5878 4.18044 11.8289C3.86298 11.07 3.69881 10.2558 3.69739 9.43314C3.69597 9.06473 3.7254 8.69685 3.78537 8.33335L8.09657 12.6555C8.19881 12.7586 8.32045 12.8404 8.45447 12.8963C8.58849 12.9521 8.73224 12.9809 8.87743 12.9809C9.02261 12.9809 9.16636 12.9521 9.30038 12.8963C9.4344 12.8404 9.55604 12.7586 9.65828 12.6555L13.1556 9.1252C13.3539 8.92013 13.4647 8.64606 13.4647 8.36084C13.4647 8.07562 13.3539 7.80156 13.1556 7.59649L8.87743 3.28529C9.241 3.22591 9.60883 3.19649 9.97722 3.19731C11.6292 3.20022 13.2124 3.85849 14.3795 5.02762C15.5466 6.19676 16.2021 7.7812 16.2021 9.43314C16.1982 9.98285 16.1243 10.5298 15.9821 11.0608C15.9355 11.2449 15.9374 11.4378 15.9875 11.6209C16.0376 11.804 16.1343 11.971 16.268 12.1056L21.657 17.4946C21.8641 17.7017 22.145 17.8181 22.4379 17.8181C22.7308 17.8181 23.0117 17.7017 23.2188 17.4946C23.4258 17.2875 23.5422 17.0067 23.5422 16.7138C23.5422 16.4209 23.4258 16.14 23.2188 15.9329H23.1748Z" fill="#2D3274"/>
</svg>
