<svg width="41" height="40" viewBox="0 0 41 40" fill="none" xmlns="http://www.w3.org/2000/svg">
<path d="M33.7612 24.7816L27.5089 18.5431C27.6398 17.906 27.7047 17.2571 27.7026 16.6066C27.7021 14.8231 27.252 13.0685 26.394 11.505C25.5359 9.94155 24.2975 8.61959 22.7933 7.66137C21.2891 6.70315 19.5676 6.13959 17.788 6.02278C16.0083 5.90597 14.228 6.23968 12.6114 6.99307C12.4066 7.08663 12.2277 7.22877 12.0903 7.40716C11.9529 7.58554 11.8611 7.79477 11.823 8.01667C11.7849 8.23576 11.8003 8.46079 11.8677 8.67268C11.9351 8.88458 12.0526 9.0771 12.2103 9.23392L18.2274 15.2372L15.7375 17.727L9.73426 11.7099C9.57611 11.5547 9.383 11.4398 9.17116 11.3748C8.95933 11.3098 8.73499 11.2967 8.51701 11.3365C8.2965 11.3732 8.08818 11.4629 7.90992 11.5978C7.73165 11.7327 7.58873 11.9088 7.49341 12.1111C6.73751 13.7329 6.40408 15.5196 6.52416 17.305C6.64424 19.0903 7.21392 20.8162 8.18021 22.3223C9.14649 23.8283 10.478 25.0655 12.0508 25.9187C13.6237 26.7719 15.3868 27.2134 17.1761 27.2022C17.8266 27.2043 18.4755 27.1394 19.1126 27.0086L25.3511 33.2608C25.4797 33.3905 25.6326 33.4934 25.8012 33.5636C25.9698 33.6338 26.1506 33.67 26.3332 33.67C26.5158 33.67 26.6966 33.6338 26.8651 33.5636C27.0337 33.4934 27.1867 33.3905 27.3153 33.2608C27.4449 33.1322 27.5478 32.9793 27.6181 32.8107C27.6883 32.6421 27.7244 32.4613 27.7244 32.2787C27.7244 32.0961 27.6883 31.9153 27.6181 31.7468C27.5478 31.5782 27.4449 31.4252 27.3153 31.2966L20.5374 24.5187C20.368 24.3505 20.158 24.2289 19.9277 24.1659C19.6974 24.1029 19.4548 24.1006 19.2233 24.1591C18.5554 24.338 17.8675 24.4309 17.1761 24.4358C16.1415 24.4449 15.1153 24.2492 14.1567 23.86C13.198 23.4708 12.3259 22.8958 11.5904 22.1681C10.855 21.4403 10.2708 20.5743 9.87151 19.6198C9.47223 18.6653 9.26575 17.6412 9.26396 16.6066C9.26217 16.1432 9.29919 15.6805 9.37462 15.2234L14.7969 20.6595C14.9255 20.7892 15.0785 20.8921 15.2471 20.9623C15.4156 21.0325 15.5964 21.0687 15.779 21.0687C15.9616 21.0687 16.1424 21.0325 16.311 20.9623C16.4796 20.8921 16.6325 20.7892 16.7611 20.6595L21.1598 16.2193C21.4092 15.9614 21.5485 15.6167 21.5485 15.2579C21.5485 14.8992 21.4092 14.5545 21.1598 14.2966L15.779 8.87428C16.2363 8.7996 16.6989 8.76259 17.1623 8.76362C19.24 8.76729 21.2313 9.59522 22.6992 11.0657C24.167 12.5361 24.9914 14.5289 24.9914 16.6066C24.9866 17.298 24.8936 17.9859 24.7148 18.6538C24.6562 18.8853 24.6586 19.1279 24.7216 19.3582C24.7846 19.5885 24.9062 19.7985 25.0744 19.9679L31.8523 26.7458C32.1128 27.0062 32.466 27.1526 32.8344 27.1526C33.2028 27.1526 33.556 27.0062 33.8165 26.7458C34.077 26.4853 34.2233 26.132 34.2233 25.7637C34.2233 25.3953 34.077 25.042 33.8165 24.7816H33.7612Z" fill="#FBFBFB"/>
</svg>
