<svg width="208" height="23" viewBox="0 0 208 23" fill="none" xmlns="http://www.w3.org/2000/svg">
<path d="M205.335 5.10155C205.217 4.5333 205.032 4.03012 204.795 3.57933C204.298 2.66187 203.546 1.946 202.517 1.43488C201.557 0.947583 200.294 0.6079 198.713 0.407899C197.352 0.230122 195.571 0.14917 193.384 0.14917C193.325 0.14917 192.66 0.14917 191.381 0.14917C189.275 0.14917 187.552 0.238058 186.221 0.407899C184.656 0.606312 183.384 0.947583 182.43 1.43488C181.408 1.946 180.648 2.66187 180.16 3.57933C179.664 4.51742 179.413 5.73012 179.413 7.2079V13.6968C179.413 15.1682 179.664 16.3793 180.16 17.319C180.648 18.2349 181.408 18.9508 182.43 19.4619C183.384 19.9428 184.654 20.2904 186.221 20.4889C186.362 20.5111 186.503 20.519 186.651 20.5412C186.976 20.5714 187.324 20.6 187.686 20.6301C188.387 20.673 189.164 20.7111 190.014 20.7333C190.029 20.7333 190.037 20.7333 190.051 20.7333C190.094 20.7333 190.146 20.7333 190.198 20.7333C190.243 20.7333 190.287 20.7333 190.324 20.7396C190.332 20.7333 190.338 20.7333 190.346 20.7396V20.7476C190.443 20.7476 190.538 20.7476 190.643 20.7476C190.694 20.7476 190.74 20.7476 190.79 20.7476C190.954 20.7476 191.094 20.7476 191.233 20.7476C191.249 20.7476 191.27 20.7476 191.286 20.7476C191.344 20.7476 191.387 20.7476 191.433 20.7476C192.135 20.7476 192.571 20.7476 192.749 20.7476H197.494C197.154 20.5111 196.481 19.9571 195.483 19.0698C194.086 17.9381 192.711 17.3555 191.359 17.3317C191.181 17.3317 190.989 17.3317 190.789 17.3317V17.3238C190.692 17.3206 190.589 17.3206 190.494 17.3206C190.433 17.3127 190.383 17.3127 190.324 17.3127C190.287 17.3127 190.243 17.3127 190.198 17.3127C190.146 17.3047 190.095 17.3047 190.051 17.3047C190.035 17.3047 190.027 17.3047 190.014 17.3047C189.43 17.2746 188.921 17.2301 188.476 17.1714C188.187 17.1285 187.929 17.0825 187.686 17.0238C187.294 16.9349 186.946 16.8158 186.651 16.6841C186.584 16.6476 186.511 16.6174 186.444 16.5809C185.927 16.3 185.551 15.9142 185.313 15.4269C185.078 14.946 184.965 14.3333 184.965 13.5793V7.23012C184.965 6.4698 185.076 5.84123 185.313 5.36028C185.549 4.88092 185.927 4.48885 186.444 4.21425C186.946 3.94123 187.627 3.74917 188.476 3.63806C189.222 3.53488 190.19 3.4825 191.381 3.4825C192.66 3.4825 193.325 3.4825 193.384 3.4825C194.648 3.4825 195.667 3.53488 196.451 3.63806C197.31 3.74758 197.989 3.93965 198.492 4.21425C198.921 4.43647 199.252 4.73965 199.489 5.10155C199.548 5.19044 199.6 5.27139 199.638 5.36028C199.873 5.84123 199.992 6.4698 199.992 7.23012V11.865C199.978 12.1825 199.933 12.4777 199.86 12.7523C199.497 14.0317 198.448 14.7476 196.697 14.8746H192.462C194.657 16.2698 196.638 17.8158 198.389 19.4857C199.794 20.8158 201.094 21.6809 202.298 22.0873C203.113 22.4047 204.073 22.546 205.181 22.4873C205.543 22.4793 205.905 22.4508 206.281 22.3968C206.578 22.346 206.881 22.2873 207.19 22.2206L203.686 18.7095C203.776 18.6349 203.856 18.5539 203.938 18.4793C205.01 17.4158 205.549 15.819 205.549 13.6968V7.2079C205.548 6.4333 205.475 5.73012 205.335 5.10155Z" fill="#FFAF42"/>
<path d="M176.221 0.571533H170.737V20.3271H176.221V0.571533Z" fill="#FFAF42"/>
<path d="M160.73 5.90793C159.171 5.90793 157.684 6.12222 156.271 6.55079C155.141 6.89841 154.114 7.35714 153.19 7.94127V0.00952148H148.121V20.327H153.19V10.2524C153.892 9.80952 154.698 9.4619 155.6 9.20317C156.681 8.90635 157.84 8.76031 159.105 8.76031C160.117 8.76031 160.857 8.91587 161.329 9.22539C161.949 9.63968 162.267 10.3714 162.267 11.4365V20.3286H167.336V10.446C167.336 8.91587 166.746 7.76984 165.578 7.00317C164.462 6.26984 162.851 5.90793 160.73 5.90793Z" fill="#2D3274"/>
<path d="M136.362 5.90796C134.684 5.90796 133.36 5.9524 132.394 6.04764C131.106 6.17939 130.049 6.40955 129.238 6.75717C128.314 7.14923 127.619 7.71113 127.16 8.44288C126.659 9.24129 126.405 10.2619 126.405 11.5175V15.0222C126.405 16.2699 126.657 17.3 127.16 18.0889C127.625 18.8143 128.314 19.3826 129.238 19.7746C130.051 20.1238 131.086 20.3667 132.357 20.4921C133.317 20.5889 134.611 20.6397 136.237 20.6397C137.884 20.6397 139.251 20.5746 140.34 20.4476C141.61 20.308 142.644 20.0651 143.459 19.7159C144.338 19.3397 145.003 18.8286 145.438 18.1714C145.587 17.9492 145.713 17.7127 145.808 17.454C144.27 16.7222 142.725 16.0064 141.181 15.3111V15.3842C141.181 16.4048 140.789 17.0921 140.013 17.4476C139.356 17.7492 138.159 17.8968 136.429 17.8968C134.53 17.8968 133.251 17.7286 132.592 17.381C132.202 17.173 131.921 16.8921 131.743 16.5238C131.567 16.154 131.478 15.673 131.478 15.0826V11.4381C131.478 10.8461 131.567 10.3667 131.743 10.0127C131.927 9.64288 132.216 9.35399 132.608 9.14764C132.992 8.95558 133.516 8.81589 134.183 8.72542C134.781 8.6524 135.586 8.61431 136.592 8.61431C138.173 8.61431 139.283 8.7397 139.919 8.99843C140.51 9.23494 140.886 9.62701 141.041 10.181C141.094 10.373 141.124 10.5873 141.124 10.8159V10.9778C142.616 10.0905 144.132 9.24129 145.66 8.40637C145.595 8.28732 145.529 8.16986 145.446 8.05875C145.416 8.02224 145.387 7.98415 145.357 7.94764C144.959 7.43018 144.375 7.03018 143.605 6.72701C142.829 6.42383 141.816 6.20955 140.575 6.0778C139.475 5.96034 138.068 5.90796 136.362 5.90796Z" fill="#2D3274"/>
<path d="M123.649 14.0905V11.9175C123.649 10.7191 123.457 9.72066 123.067 8.94605C122.673 8.16986 122.068 7.54923 121.24 7.09685C120.443 6.66828 119.386 6.35716 118.078 6.16669C116.873 5.98891 115.343 5.90796 113.467 5.90796C111.87 5.90796 110.554 5.97462 109.505 6.11431C108.264 6.28415 107.235 6.5651 106.437 6.95716C104.654 7.83653 103.768 9.44129 103.768 11.7762V14.7413C103.768 17.0762 104.692 18.6873 106.548 19.5826C107.375 19.973 108.433 20.2619 109.703 20.4238C110.783 20.5651 112.119 20.6381 113.724 20.6381C117.124 20.6381 119.591 20.3286 121.137 19.6921C121.713 19.4492 122.194 19.1603 122.584 18.8127C122.776 18.6349 122.948 18.4429 123.094 18.2445C122.111 17.7349 121.129 17.2222 120.146 16.7064C119.746 16.4984 119.348 16.3 118.949 16.0842C118.918 16.4476 118.792 16.7429 118.573 16.9937C118.371 17.2 118.114 17.3778 117.789 17.5032C117.073 17.7841 115.845 17.9254 114.108 17.9254C112.194 17.9254 110.857 17.7413 110.089 17.3572C109.254 16.9429 108.84 16.2032 108.84 15.1318V14.0905H123.649ZM108.838 11.6889V11.0159C108.838 10.0175 109.245 9.33018 110.071 8.96034C110.789 8.63494 112.06 8.47304 113.884 8.47304C115.673 8.47304 116.9 8.62066 117.557 8.91589C118.318 9.26351 118.703 9.93653 118.703 10.927V11.6889H108.838Z" fill="#2D3274"/>
<path d="M105.052 3.75725V0.571533H83.219V3.75725H91.3936V20.3271H96.8841V3.75725H105.052Z" fill="#2D3274"/>
<path d="M81.3206 6.74276C80.4937 6.40308 79.4349 6.1745 78.1206 6.04117C77.1445 5.95228 75.8 5.90942 74.0921 5.90942C72.3699 5.90942 71.0175 5.95387 70.0492 6.04117C68.7333 6.1745 67.6683 6.40466 66.8413 6.74276C65.9032 7.13482 65.2 7.69673 64.7349 8.42847C64.2318 9.2253 63.981 10.2539 63.981 11.5174V15.0221C63.981 16.2856 64.2318 17.3205 64.7349 18.111C65.2 18.8507 65.9032 19.4031 66.8413 19.7967C67.6683 20.1443 68.7318 20.3729 70.0492 20.4983C71.0175 20.5872 72.3699 20.638 74.0921 20.638C75.8064 20.638 77.1524 20.5872 78.1206 20.4983C79.4365 20.3729 80.4937 20.1428 81.3206 19.7967C82.2524 19.4047 82.954 18.8507 83.4191 18.111C83.9286 17.3205 84.181 16.2856 84.181 15.0221V11.5174C84.181 10.2539 83.9286 9.2253 83.4191 8.42847C82.954 7.69673 82.2524 7.13482 81.3206 6.74276ZM77.9714 9.0999C78.3714 9.2999 78.6587 9.58085 78.8365 9.94276C79.0143 10.2967 79.1032 10.7697 79.1032 11.3539V15.1602C79.1032 15.7285 79.0143 16.1872 78.8365 16.5428C78.6587 16.8983 78.3714 17.1777 77.9714 17.3777C77.2841 17.7253 75.9905 17.8936 74.0921 17.8936C72.1635 17.8936 70.8556 17.7253 70.1683 17.3777C69.7762 17.1777 69.4873 16.8967 69.3095 16.5428C69.1318 16.1888 69.0508 15.7285 69.0508 15.1602V11.3539C69.0508 10.7697 69.1318 10.2967 69.3095 9.94276C69.4873 9.57927 69.7746 9.2999 70.1683 9.0999C70.8476 8.76022 72.1556 8.59038 74.0921 8.59038C76.0064 8.59038 77.3 8.76022 77.9714 9.0999Z" fill="#2D3274"/>
<path d="M61.7858 8.84288V6.21907H56.3905V2.91431H51.3127V16.2048C51.3127 17.7191 51.8302 18.827 52.8572 19.5445C53.8254 20.2175 55.2969 20.5492 57.2477 20.5492C58.1048 20.5492 58.9762 20.4984 59.8699 20.4016C60.5873 20.3191 61.2239 20.2175 61.7858 20.0984V17.6159C61.0159 17.7492 60.2937 17.8159 59.6127 17.8159C58.4223 17.8159 57.5794 17.6318 57.0778 17.2683C56.6191 16.9286 56.3905 16.3889 56.3905 15.6429V8.84288H61.7858Z" fill="#2D3274"/>
<path d="M34.1349 6.21753H29.0571V15.6937C29.0571 17.4588 29.7444 18.7461 31.119 19.5445C32.2714 20.2175 33.9349 20.5493 36.1143 20.5493C37.6016 20.5493 39.0206 20.3731 40.3651 20.0255C41.4809 19.7286 42.4635 19.3366 43.292 18.8588L43.8095 20.3286H48.2809V6.21912H43.2032V16.4048C42.627 16.789 41.9682 17.0937 41.2301 17.3064C40.3873 17.5572 39.4714 17.6763 38.4809 17.6763C36.8762 17.6763 35.7682 17.4842 35.1476 17.0842C34.4682 16.6699 34.1349 15.8937 34.1349 14.7715V6.21753Z" fill="#2D3274"/>
<path d="M27.9127 20.3285L24.2175 12.457H4.12222L0.5 20.3285H6.53175L8.41587 15.9539H20.0048L21.8825 20.3285H27.9127Z" fill="#2D3274"/>
<path d="M22.1476 8.92222C21.9174 8.49365 21.6825 8.07302 21.446 7.66508C18.4682 2.72857 14.6317 0.171429 9.91583 0L7.66187 5.05556C8.12694 5.06349 8.61583 5.07778 9.14917 5.10794C10.5381 5.2254 11.7952 5.55079 12.9174 6.07619C13.9746 6.57143 14.965 7.13333 15.8587 7.74603C16.7619 8.35873 18.0698 8.75873 19.7841 8.92064H22.1476V8.92222Z" fill="#FFAF42"/>
</svg>
