<svg preserveAspectRatio="none" width="322" height="24" viewBox="0 0 322 24" fill="none" xmlns="http://www.w3.org/2000/svg">
<rect x="0.5" y="0.5" width="9" height="23" rx="1.5" stroke="#212529" stroke-opacity="0.2"/>
<rect x="12.5" y="0.5" width="9" height="23" rx="1.5" stroke="#212529" stroke-opacity="0.2"/>
<rect x="24.5" y="0.5" width="9" height="23" rx="1.5" stroke="#212529" stroke-opacity="0.2"/>
<rect x="36.5" y="0.5" width="9" height="23" rx="1.5" stroke="#212529" stroke-opacity="0.2"/>
<rect x="48.5" y="0.5" width="9" height="23" rx="1.5" stroke="#212529" stroke-opacity="0.2"/>
<rect x="60.5" y="0.5" width="9" height="23" rx="1.5" stroke="#212529" stroke-opacity="0.2"/>
<rect x="72.5" y="0.5" width="9" height="23" rx="1.5" stroke="#212529" stroke-opacity="0.2"/>
<rect x="84.5" y="0.5" width="9" height="23" rx="1.5" stroke="#212529" stroke-opacity="0.2"/>
<rect x="96.5" y="0.5" width="9" height="23" rx="1.5" stroke="#212529" stroke-opacity="0.2"/>
<rect x="108.5" y="0.5" width="9" height="23" rx="1.5" stroke="#212529" stroke-opacity="0.2"/>
<rect x="120.5" y="0.5" width="9" height="23" rx="1.5" stroke="#212529" stroke-opacity="0.2"/>
<rect x="132.5" y="0.5" width="9" height="23" rx="1.5" stroke="#212529" stroke-opacity="0.2"/>
<rect x="144.5" y="0.5" width="9" height="23" rx="1.5" stroke="#212529" stroke-opacity="0.2"/>
<rect x="156.5" y="0.5" width="9" height="23" rx="1.5" stroke="#212529" stroke-opacity="0.2"/>
<rect x="168.5" y="0.5" width="9" height="23" rx="1.5" stroke="#212529" stroke-opacity="0.2"/>
<rect x="180.5" y="0.5" width="9" height="23" rx="1.5" stroke="#212529" stroke-opacity="0.2"/>
<rect x="192.5" y="0.5" width="9" height="23" rx="1.5" stroke="#212529" stroke-opacity="0.2"/>
<rect x="204.5" y="0.5" width="9" height="23" rx="1.5" stroke="#212529" stroke-opacity="0.2"/>
<rect x="216.5" y="0.5" width="9" height="23" rx="1.5" stroke="#212529" stroke-opacity="0.2"/>
<rect x="228.5" y="0.5" width="9" height="23" rx="1.5" stroke="#212529" stroke-opacity="0.2"/>
<rect x="240.5" y="0.5" width="9" height="23" rx="1.5" stroke="#212529" stroke-opacity="0.2"/>
<rect x="252.5" y="0.5" width="9" height="23" rx="1.5" stroke="#212529" stroke-opacity="0.2"/>
<rect x="264.5" y="0.5" width="9" height="23" rx="1.5" stroke="#212529" stroke-opacity="0.2"/>
<rect x="276.5" y="0.5" width="9" height="23" rx="1.5" stroke="#212529" stroke-opacity="0.2"/>
<rect x="288.5" y="0.5" width="9" height="23" rx="1.5" stroke="#212529" stroke-opacity="0.2"/>
<rect x="300.5" y="0.5" width="9" height="23" rx="1.5" stroke="#212529" stroke-opacity="0.2"/>
<rect x="312.5" y="0.5" width="9" height="23" rx="1.5" stroke="#212529" stroke-opacity="0.2"/>
</svg>
