<svg width="16" height="16" viewBox="0 0 17 18" fill="none" xmlns="http://www.w3.org/2000/svg">
<path d="M11.2063 12.425L12.6063 11.025C12.7948 10.8388 13.0334 10.7113 13.293 10.6581C13.5526 10.6048 13.8221 10.6281 14.0688 10.725L15.775 11.4063C16.0243 11.5075 16.238 11.6801 16.3893 11.9026C16.5405 12.125 16.6226 12.3873 16.625 12.6563V15.7813C16.6236 15.9643 16.5851 16.1451 16.5119 16.3128C16.4388 16.4805 16.3324 16.6317 16.1993 16.7573C16.0661 16.8828 15.909 16.9801 15.7373 17.0433C15.5655 17.1065 15.3828 17.1343 15.2 17.125C3.24377 16.3813 0.831273 6.25628 0.375023 2.38128C0.353843 2.19099 0.373194 1.99837 0.431803 1.81609C0.490411 1.63382 0.586949 1.46602 0.715065 1.32374C0.84318 1.18145 0.999971 1.0679 1.17512 0.990565C1.35027 0.913227 1.53981 0.873851 1.73127 0.875026H4.75002C5.0194 0.875823 5.28239 0.957193 5.50514 1.10867C5.7279 1.26015 5.90025 1.4748 6.00002 1.72503L6.68127 3.43128C6.78143 3.67694 6.80698 3.94668 6.75474 4.20678C6.7025 4.46689 6.57477 4.70584 6.38752 4.89378L4.98752 6.29378C4.98752 6.29378 5.79377 11.75 11.2063 12.425Z" fill="#2D3274"/>
</svg>
