<svg width="226" height="45" viewBox="0 0 207 23" fill="none" xmlns="http://www.w3.org/2000/svg">
<path d="M204.835 5.10155C204.717 4.5333 204.532 4.03012 204.295 3.57933C203.798 2.66187 203.046 1.946 202.017 1.43488C201.057 0.947583 199.794 0.6079 198.213 0.407899C196.852 0.230122 195.071 0.14917 192.884 0.14917C192.825 0.14917 192.16 0.14917 190.881 0.14917C188.775 0.14917 187.052 0.238058 185.721 0.407899C184.156 0.606312 182.884 0.947583 181.93 1.43488C180.908 1.946 180.148 2.66187 179.66 3.57933C179.164 4.51742 178.913 5.73012 178.913 7.2079V13.6968C178.913 15.1682 179.164 16.3793 179.66 17.319C180.148 18.2349 180.908 18.9508 181.93 19.4619C182.884 19.9428 184.154 20.2904 185.721 20.4889C185.862 20.5111 186.003 20.519 186.151 20.5412C186.476 20.5714 186.824 20.6 187.186 20.6301C187.887 20.673 188.664 20.7111 189.514 20.7333C189.529 20.7333 189.537 20.7333 189.551 20.7333C189.594 20.7333 189.646 20.7333 189.698 20.7333C189.743 20.7333 189.787 20.7333 189.824 20.7396C189.832 20.7333 189.838 20.7333 189.846 20.7396V20.7476C189.943 20.7476 190.038 20.7476 190.143 20.7476C190.194 20.7476 190.24 20.7476 190.29 20.7476C190.454 20.7476 190.594 20.7476 190.733 20.7476C190.749 20.7476 190.77 20.7476 190.786 20.7476C190.844 20.7476 190.887 20.7476 190.933 20.7476C191.635 20.7476 192.071 20.7476 192.249 20.7476H196.994C196.654 20.5111 195.981 19.9571 194.983 19.0698C193.586 17.9381 192.211 17.3555 190.859 17.3317C190.681 17.3317 190.489 17.3317 190.289 17.3317V17.3238C190.192 17.3206 190.089 17.3206 189.994 17.3206C189.933 17.3127 189.883 17.3127 189.824 17.3127C189.787 17.3127 189.743 17.3127 189.698 17.3127C189.646 17.3047 189.595 17.3047 189.551 17.3047C189.535 17.3047 189.527 17.3047 189.514 17.3047C188.93 17.2746 188.421 17.2301 187.976 17.1714C187.687 17.1285 187.429 17.0825 187.186 17.0238C186.794 16.9349 186.446 16.8158 186.151 16.6841C186.084 16.6476 186.011 16.6174 185.944 16.5809C185.427 16.3 185.051 15.9142 184.813 15.4269C184.578 14.946 184.465 14.3333 184.465 13.5793V7.23012C184.465 6.4698 184.576 5.84123 184.813 5.36028C185.049 4.88092 185.427 4.48885 185.944 4.21425C186.446 3.94123 187.127 3.74917 187.976 3.63806C188.722 3.53488 189.69 3.4825 190.881 3.4825C192.16 3.4825 192.825 3.4825 192.884 3.4825C194.148 3.4825 195.167 3.53488 195.951 3.63806C196.81 3.74758 197.489 3.93965 197.992 4.21425C198.421 4.43647 198.752 4.73965 198.989 5.10155C199.048 5.19044 199.1 5.27139 199.138 5.36028C199.373 5.84123 199.492 6.4698 199.492 7.23012V11.865C199.478 12.1825 199.433 12.4777 199.36 12.7523C198.997 14.0317 197.948 14.7476 196.197 14.8746H191.962C194.157 16.2698 196.138 17.8158 197.889 19.4857C199.294 20.8158 200.594 21.6809 201.798 22.0873C202.613 22.4047 203.573 22.546 204.681 22.4873C205.043 22.4793 205.405 22.4508 205.781 22.3968C206.078 22.346 206.381 22.2873 206.69 22.2206L203.186 18.7095C203.276 18.6349 203.356 18.5539 203.438 18.4793C204.51 17.4158 205.049 15.819 205.049 13.6968V7.2079C205.048 6.4333 204.975 5.73012 204.835 5.10155Z" fill="#FFAF42"/>
<path d="M175.721 0.571533H170.237V20.3271H175.721V0.571533Z" fill="#FFAF42"/>
<path d="M160.23 5.90793C158.671 5.90793 157.184 6.12222 155.771 6.55079C154.641 6.89841 153.614 7.35714 152.69 7.94127V0.00952148H147.621V20.327H152.69V10.2524C153.392 9.80952 154.198 9.4619 155.1 9.20317C156.181 8.90635 157.34 8.76031 158.605 8.76031C159.617 8.76031 160.357 8.91587 160.829 9.22539C161.449 9.63968 161.767 10.3714 161.767 11.4365V20.3286H166.836V10.446C166.836 8.91587 166.246 7.76984 165.078 7.00317C163.962 6.26984 162.351 5.90793 160.23 5.90793Z" fill="#F5F5F5"/>
<path d="M135.862 5.90796C134.184 5.90796 132.86 5.9524 131.894 6.04764C130.606 6.17939 129.549 6.40955 128.738 6.75717C127.814 7.14923 127.119 7.71113 126.66 8.44288C126.159 9.24129 125.905 10.2619 125.905 11.5175V15.0222C125.905 16.2699 126.157 17.3 126.66 18.0889C127.125 18.8143 127.814 19.3826 128.738 19.7746C129.551 20.1238 130.586 20.3667 131.857 20.4921C132.817 20.5889 134.111 20.6397 135.737 20.6397C137.384 20.6397 138.751 20.5746 139.84 20.4476C141.11 20.308 142.144 20.0651 142.959 19.7159C143.838 19.3397 144.503 18.8286 144.938 18.1714C145.087 17.9492 145.213 17.7127 145.308 17.454C143.77 16.7222 142.225 16.0064 140.681 15.3111V15.3842C140.681 16.4048 140.289 17.0921 139.513 17.4476C138.856 17.7492 137.659 17.8968 135.929 17.8968C134.03 17.8968 132.751 17.7286 132.092 17.381C131.702 17.173 131.421 16.8921 131.243 16.5238C131.067 16.154 130.978 15.673 130.978 15.0826V11.4381C130.978 10.8461 131.067 10.3667 131.243 10.0127C131.427 9.64288 131.716 9.35399 132.108 9.14764C132.492 8.95558 133.016 8.81589 133.683 8.72542C134.281 8.6524 135.086 8.61431 136.092 8.61431C137.673 8.61431 138.783 8.7397 139.419 8.99843C140.01 9.23494 140.386 9.62701 140.541 10.181C140.594 10.373 140.624 10.5873 140.624 10.8159V10.9778C142.116 10.0905 143.632 9.24129 145.16 8.40637C145.095 8.28732 145.029 8.16986 144.946 8.05875C144.916 8.02224 144.887 7.98415 144.857 7.94764C144.459 7.43018 143.875 7.03018 143.105 6.72701C142.329 6.42383 141.316 6.20955 140.075 6.0778C138.975 5.96034 137.568 5.90796 135.862 5.90796Z" fill="#F5F5F5"/>
<path d="M123.149 14.0905V11.9175C123.149 10.7191 122.957 9.72066 122.567 8.94605C122.173 8.16986 121.568 7.54923 120.74 7.09685C119.943 6.66828 118.886 6.35716 117.578 6.16669C116.373 5.98891 114.843 5.90796 112.967 5.90796C111.37 5.90796 110.054 5.97462 109.005 6.11431C107.764 6.28415 106.735 6.5651 105.937 6.95716C104.154 7.83653 103.268 9.44129 103.268 11.7762V14.7413C103.268 17.0762 104.192 18.6873 106.048 19.5826C106.875 19.973 107.933 20.2619 109.203 20.4238C110.283 20.5651 111.619 20.6381 113.224 20.6381C116.624 20.6381 119.091 20.3286 120.637 19.6921C121.213 19.4492 121.694 19.1603 122.084 18.8127C122.276 18.6349 122.448 18.4429 122.594 18.2445C121.611 17.7349 120.629 17.2222 119.646 16.7064C119.246 16.4984 118.848 16.3 118.449 16.0842C118.418 16.4476 118.292 16.7429 118.073 16.9937C117.871 17.2 117.614 17.3778 117.289 17.5032C116.573 17.7841 115.345 17.9254 113.608 17.9254C111.694 17.9254 110.357 17.7413 109.589 17.3572C108.754 16.9429 108.34 16.2032 108.34 15.1318V14.0905H123.149ZM108.338 11.6889V11.0159C108.338 10.0175 108.745 9.33018 109.571 8.96034C110.289 8.63494 111.56 8.47304 113.384 8.47304C115.173 8.47304 116.4 8.62066 117.057 8.91589C117.818 9.26351 118.203 9.93653 118.203 10.927V11.6889H108.338Z" fill="#F5F5F5"/>
<path d="M104.552 3.75725V0.571533H82.719V3.75725H90.8936V20.3271H96.3841V3.75725H104.552Z" fill="#F5F5F5"/>
<path d="M80.8206 6.74276C79.9937 6.40308 78.9349 6.1745 77.6206 6.04117C76.6445 5.95228 75.3 5.90942 73.5921 5.90942C71.8699 5.90942 70.5175 5.95387 69.5492 6.04117C68.2333 6.1745 67.1683 6.40466 66.3413 6.74276C65.4032 7.13482 64.7 7.69673 64.2349 8.42847C63.7318 9.2253 63.481 10.2539 63.481 11.5174V15.0221C63.481 16.2856 63.7318 17.3205 64.2349 18.111C64.7 18.8507 65.4032 19.4031 66.3413 19.7967C67.1683 20.1443 68.2318 20.3729 69.5492 20.4983C70.5175 20.5872 71.8699 20.638 73.5921 20.638C75.3064 20.638 76.6524 20.5872 77.6206 20.4983C78.9365 20.3729 79.9937 20.1428 80.8206 19.7967C81.7524 19.4047 82.454 18.8507 82.9191 18.111C83.4286 17.3205 83.681 16.2856 83.681 15.0221V11.5174C83.681 10.2539 83.4286 9.2253 82.9191 8.42847C82.454 7.69673 81.7524 7.13482 80.8206 6.74276ZM77.4714 9.0999C77.8714 9.2999 78.1587 9.58085 78.3365 9.94276C78.5143 10.2967 78.6032 10.7697 78.6032 11.3539V15.1602C78.6032 15.7285 78.5143 16.1872 78.3365 16.5428C78.1587 16.8983 77.8714 17.1777 77.4714 17.3777C76.7841 17.7253 75.4905 17.8936 73.5921 17.8936C71.6635 17.8936 70.3556 17.7253 69.6683 17.3777C69.2762 17.1777 68.9873 16.8967 68.8095 16.5428C68.6318 16.1888 68.5508 15.7285 68.5508 15.1602V11.3539C68.5508 10.7697 68.6318 10.2967 68.8095 9.94276C68.9873 9.57927 69.2746 9.2999 69.6683 9.0999C70.3476 8.76022 71.6556 8.59038 73.5921 8.59038C75.5064 8.59038 76.8 8.76022 77.4714 9.0999Z" fill="#F5F5F5"/>
<path d="M61.2858 8.84288V6.21907H55.8905V2.91431H50.8127V16.2048C50.8127 17.7191 51.3302 18.827 52.3572 19.5445C53.3254 20.2175 54.7969 20.5492 56.7477 20.5492C57.6048 20.5492 58.4762 20.4984 59.3699 20.4016C60.0873 20.3191 60.7239 20.2175 61.2858 20.0984V17.6159C60.5159 17.7492 59.7937 17.8159 59.1127 17.8159C57.9223 17.8159 57.0794 17.6318 56.5778 17.2683C56.1191 16.9286 55.8905 16.3889 55.8905 15.6429V8.84288H61.2858Z" fill="#F5F5F5"/>
<path d="M33.6349 6.21753H28.5571V15.6937C28.5571 17.4588 29.2444 18.7461 30.619 19.5445C31.7714 20.2175 33.4349 20.5493 35.6143 20.5493C37.1016 20.5493 38.5206 20.3731 39.8651 20.0255C40.9809 19.7286 41.9635 19.3366 42.792 18.8588L43.3095 20.3286H47.7809V6.21912H42.7032V16.4048C42.127 16.789 41.4682 17.0937 40.7301 17.3064C39.8873 17.5572 38.9714 17.6763 37.9809 17.6763C36.3762 17.6763 35.2682 17.4842 34.6476 17.0842C33.9682 16.6699 33.6349 15.8937 33.6349 14.7715V6.21753Z" fill="#F5F5F5"/>
<path d="M27.4127 20.3285L23.7175 12.457H3.62222L0 20.3285H6.03175L7.91587 15.9539H19.5048L21.3825 20.3285H27.4127Z" fill="#F5F5F5"/>
<path d="M21.6476 8.92222C21.4174 8.49365 21.1825 8.07302 20.946 7.66508C17.9682 2.72857 14.1317 0.171429 9.41583 0L7.16187 5.05556C7.62694 5.06349 8.11583 5.07778 8.64917 5.10794C10.0381 5.2254 11.2952 5.55079 12.4174 6.07619C13.4746 6.57143 14.465 7.13333 15.3587 7.74603C16.2619 8.35873 17.5698 8.75873 19.2841 8.92064H21.6476V8.92222Z" fill="#FFAF42"/>
</svg>
